<?xml version="1.0" standalone="no"?>
<!DOCTYPE svg PUBLIC "-//W3C//DTD SVG 20010904//EN"
 "http://www.w3.org/TR/2001/REC-SVG-20010904/DTD/svg10.dtd">
<svg version="1.0" xmlns="http://www.w3.org/2000/svg"
 width="260.000000pt" height="260.000000pt" viewBox="0 0 260.000000 260.000000"
 preserveAspectRatio="xMidYMid meet">
<metadata>
Created by potrace 1.14, written by Peter Selinger 2001-2017
</metadata>
<g transform="translate(0.000000,260.000000) scale(0.100000,-0.100000)"
fill="#000000" stroke="none">
<path d="M0 1300 l0 -1300 1300 0 1300 0 0 1300 0 1300 -1300 0 -1300 0 0
-1300z m668 144 c86 -56 81 -208 -9 -256 -112 -60 -234 29 -214 158 7 49 56
109 97 117 35 8 100 -2 126 -19z m1671 20 c36 -8 81 -49 81 -75 0 -15 -8 -19
-39 -19 -23 0 -44 6 -51 15 -16 19 -55 16 -55 -4 0 -9 20 -20 55 -29 70 -17
94 -40 93 -88 -2 -68 -70 -106 -159 -90 -42 8 -84 46 -84 76 0 16 6 20 30 20
17 0 42 -7 55 -16 28 -18 70 -15 70 6 0 10 -19 19 -55 27 -69 15 -105 51 -96
96 13 64 76 97 155 81z m-1909 -39 c0 -33 -2 -35 -35 -35 l-35 0 0 -105 0
-105 -45 0 -45 0 0 105 0 105 -35 0 c-33 0 -35 2 -35 35 l0 35 115 0 115 0 0
-35z m463 -49 l30 -80 30 82 30 82 48 0 49 0 0 -140 0 -140 -35 0 -34 0 -3 73
-3 72 -28 -72 c-26 -66 -31 -73 -56 -73 -25 0 -30 7 -52 68 l-24 67 -3 -67 -3
-68 -39 0 -40 0 0 141 0 140 51 -3 52 -3 30 -79z m317 -56 l0 -140 -45 0 -45
0 0 140 0 140 45 0 45 0 0 -140z m160 72 l45 -67 3 68 3 67 39 0 40 0 0 -140
0 -140 -34 0 c-32 0 -40 7 -83 67 l-48 68 -3 -68 -3 -67 -39 0 -40 0 0 140 0
140 38 0 c35 0 40 -5 82 -68z m380 33 l0 -35 -60 0 c-53 0 -60 -2 -60 -20 0
-18 7 -20 55 -20 54 0 55 0 55 -30 0 -30 -1 -30 -55 -30 -48 0 -55 -3 -55 -20
0 -16 8 -19 58 -22 56 -3 57 -3 60 -35 l3 -33 -105 0 -106 0 0 140 0 140 105
0 105 0 0 -35z m114 18 c2 -10 10 -45 17 -78 l12 -60 20 78 19 77 37 0 37 0
13 -63 c19 -95 26 -97 41 -13 l13 76 43 0 c29 0 44 -4 43 -12 0 -7 -15 -69
-33 -138 l-33 -125 -45 -3 c-43 -3 -46 -1 -52 25 -4 15 -12 46 -18 68 l-11 40
-16 -65 -17 -65 -46 -3 -45 -3 -35 141 -36 140 44 0 c32 0 44 -4 48 -17z"/>
<path d="M546 1368 c-33 -46 -6 -127 42 -128 25 0 52 40 52 78 0 65 -61 97
-94 50z"/>
</g>
</svg>
