<?xml version="1.0" standalone="no"?>
<!DOCTYPE svg PUBLIC "-//W3C//DTD SVG 20010904//EN"
 "http://www.w3.org/TR/2001/REC-SVG-20010904/DTD/svg10.dtd">
<svg version="1.0" xmlns="http://www.w3.org/2000/svg"
 width="512.000000pt" height="512.000000pt" viewBox="0 0 512.000000 512.000000"
 preserveAspectRatio="xMidYMid meet">
<metadata>
Created by potrace 1.11, written by Peter Selinger 2001-2013
</metadata>
<g transform="translate(0.000000,512.000000) scale(0.100000,-0.100000)"
fill="#000000" stroke="none">
<path d="M0 2560 l0 -2560 2560 0 2560 0 0 2560 0 2560 -2560 0 -2560 0 0
-2560z m2820 1270 c484 -135 760 -683 620 -1231 -115 -449 -477 -847 -1017
-1117 -171 -86 -436 -181 -600 -217 l-33 -7 0 347 c0 268 3 346 13 349 6 3 66
21 132 41 193 59 356 146 494 264 l54 46 -72 12 c-252 42 -451 186 -552 398
-59 122 -73 190 -72 335 1 153 23 244 90 380 40 81 60 109 142 190 129 129
247 190 434 226 97 18 269 11 367 -16z"/>
</g>
</svg>
